<svg xmlns="http://www.w3.org/2000/svg" viewBox="0 0 1300 1250" width="1300" height="1250" preserveAspectRatio="xMidYMid slice"><defs><linearGradient id="pbg" x1="0" y1="0" x2="1" y2="1"><stop offset="0" stop-color="#1d1d1e"/><stop offset="1" stop-color="#080808"/></linearGradient><linearGradient id="metal" x1="0" y1="0" x2="1" y2="1"><stop offset="0" stop-color="#2b2b2d"/><stop offset="0.5" stop-color="#171718"/><stop offset="1" stop-color="#232325"/></linearGradient><linearGradient id="gl" x1="0" y1="0" x2="1" y2="0"><stop offset="0" stop-color="#5f8f88" stop-opacity="0.55"/><stop offset="1" stop-color="#2a4b47" stop-opacity="0.75"/></linearGradient><linearGradient id="sheen" x1="0" y1="0" x2="1" y2="1"><stop offset="0" stop-color="#fff" stop-opacity="0.16"/><stop offset="0.4" stop-color="#fff" stop-opacity="0"/><stop offset="1" stop-color="#fff" stop-opacity="0.05"/></linearGradient><radialGradient id="spot" cx="0.4" cy="0.6" r="0.55"><stop offset="0" stop-color="#fff" stop-opacity="0.09"/><stop offset="1" stop-color="#fff" stop-opacity="0"/></radialGradient></defs><rect x="0" y="0" width="1300" height="1250" fill="url(#pbg)" /><rect x="0" y="0" width="1300" height="1250" fill="url(#spot)" /><rect x="440" y="30" width="16" height="560" fill="url(#gl)" stroke="#9fc7bf" stroke-opacity=".7" stroke-width="1.5"/><rect x="500" y="30" width="16" height="560" fill="url(#gl)" stroke="#9fc7bf" stroke-opacity=".7" stroke-width="1.5"/><rect x="560" y="30" width="16" height="560" fill="url(#gl)" stroke="#9fc7bf" stroke-opacity=".7" stroke-width="1.5"/><rect x="434" y="560" width="28" height="40" fill="#c8c8c6" opacity=".9"/><rect x="494" y="560" width="28" height="40" fill="#c8c8c6" opacity=".9"/><rect x="554" y="560" width="28" height="40" fill="#c8c8c6" opacity=".9"/><path d="M300 600 h560 v560 h-560 z" fill="url(#metal)" stroke="#dcdcda" stroke-width="3.5"/><rect x="320" y="620" width="130" height="150" fill="#0c0c0d" stroke="#cfcfcd" stroke-width="2.4" rx="4"/><rect x="320" y="790" width="130" height="150" fill="#0c0c0d" stroke="#cfcfcd" stroke-width="2.4" rx="4"/><rect x="320" y="960" width="130" height="180" fill="#0c0c0d" stroke="#cfcfcd" stroke-width="2.4" rx="4"/><rect x="470" y="620" width="90" height="90" fill="#0c0c0d" stroke="#cfcfcd" stroke-width="2.4" rx="4"/><rect x="470" y="730" width="90" height="200" fill="#0c0c0d" stroke="#cfcfcd" stroke-width="2.4" rx="4"/><rect x="470" y="950" width="90" height="190" fill="#0c0c0d" stroke="#cfcfcd" stroke-width="2.4" rx="4"/><rect x="680" y="620" width="160" height="130" fill="#0c0c0d" stroke="#cfcfcd" stroke-width="2.4" rx="4"/><rect x="680" y="770" width="160" height="170" fill="#0c0c0d" stroke="#cfcfcd" stroke-width="2.4" rx="4"/><rect x="680" y="960" width="160" height="180" fill="#0c0c0d" stroke="#cfcfcd" stroke-width="2.4" rx="4"/><rect x="586" y="620" width="26" height="520" fill="#ece5d6" stroke="#fff" stroke-width="1.5"/><line x1="586" y1="620" x2="612" y2="634" stroke="#a89f8d" stroke-width="1.6"/><line x1="586" y1="640" x2="612" y2="654" stroke="#a89f8d" stroke-width="1.6"/><line x1="586" y1="660" x2="612" y2="674" stroke="#a89f8d" stroke-width="1.6"/><line x1="586" y1="680" x2="612" y2="694" stroke="#a89f8d" stroke-width="1.6"/><line x1="586" y1="700" x2="612" y2="714" stroke="#a89f8d" stroke-width="1.6"/><line x1="586" y1="720" x2="612" y2="734" stroke="#a89f8d" stroke-width="1.6"/><line x1="586" y1="740" x2="612" y2="754" stroke="#a89f8d" stroke-width="1.6"/><line x1="586" y1="760" x2="612" y2="774" stroke="#a89f8d" stroke-width="1.6"/><line x1="586" y1="780" x2="612" y2="794" stroke="#a89f8d" stroke-width="1.6"/><line x1="586" y1="800" x2="612" y2="814" stroke="#a89f8d" stroke-width="1.6"/><line x1="586" y1="820" x2="612" y2="834" stroke="#a89f8d" stroke-width="1.6"/><line x1="586" y1="840" x2="612" y2="854" stroke="#a89f8d" stroke-width="1.6"/><line x1="586" y1="860" x2="612" y2="874" stroke="#a89f8d" stroke-width="1.6"/><line x1="586" y1="880" x2="612" y2="894" stroke="#a89f8d" stroke-width="1.6"/><line x1="586" y1="900" x2="612" y2="914" stroke="#a89f8d" stroke-width="1.6"/><line x1="586" y1="920" x2="612" y2="934" stroke="#a89f8d" stroke-width="1.6"/><line x1="586" y1="940" x2="612" y2="954" stroke="#a89f8d" stroke-width="1.6"/><line x1="586" y1="960" x2="612" y2="974" stroke="#a89f8d" stroke-width="1.6"/><line x1="586" y1="980" x2="612" y2="994" stroke="#a89f8d" stroke-width="1.6"/><line x1="586" y1="1000" x2="612" y2="1014" stroke="#a89f8d" stroke-width="1.6"/><line x1="586" y1="1020" x2="612" y2="1034" stroke="#a89f8d" stroke-width="1.6"/><line x1="586" y1="1040" x2="612" y2="1054" stroke="#a89f8d" stroke-width="1.6"/><line x1="586" y1="1060" x2="612" y2="1074" stroke="#a89f8d" stroke-width="1.6"/><line x1="586" y1="1080" x2="612" y2="1094" stroke="#a89f8d" stroke-width="1.6"/><line x1="586" y1="1100" x2="612" y2="1114" stroke="#a89f8d" stroke-width="1.6"/><line x1="586" y1="1120" x2="612" y2="1134" stroke="#a89f8d" stroke-width="1.6"/><rect x="640" y="620" width="26" height="520" fill="#ece5d6" stroke="#fff" stroke-width="1.5"/><line x1="640" y1="620" x2="666" y2="634" stroke="#a89f8d" stroke-width="1.6"/><line x1="640" y1="640" x2="666" y2="654" stroke="#a89f8d" stroke-width="1.6"/><line x1="640" y1="660" x2="666" y2="674" stroke="#a89f8d" stroke-width="1.6"/><line x1="640" y1="680" x2="666" y2="694" stroke="#a89f8d" stroke-width="1.6"/><line x1="640" y1="700" x2="666" y2="714" stroke="#a89f8d" stroke-width="1.6"/><line x1="640" y1="720" x2="666" y2="734" stroke="#a89f8d" stroke-width="1.6"/><line x1="640" y1="740" x2="666" y2="754" stroke="#a89f8d" stroke-width="1.6"/><line x1="640" y1="760" x2="666" y2="774" stroke="#a89f8d" stroke-width="1.6"/><line x1="640" y1="780" x2="666" y2="794" stroke="#a89f8d" stroke-width="1.6"/><line x1="640" y1="800" x2="666" y2="814" stroke="#a89f8d" stroke-width="1.6"/><line x1="640" y1="820" x2="666" y2="834" stroke="#a89f8d" stroke-width="1.6"/><line x1="640" y1="840" x2="666" y2="854" stroke="#a89f8d" stroke-width="1.6"/><line x1="640" y1="860" x2="666" y2="874" stroke="#a89f8d" stroke-width="1.6"/><line x1="640" y1="880" x2="666" y2="894" stroke="#a89f8d" stroke-width="1.6"/><line x1="640" y1="900" x2="666" y2="914" stroke="#a89f8d" stroke-width="1.6"/><line x1="640" y1="920" x2="666" y2="934" stroke="#a89f8d" stroke-width="1.6"/><line x1="640" y1="940" x2="666" y2="954" stroke="#a89f8d" stroke-width="1.6"/><line x1="640" y1="960" x2="666" y2="974" stroke="#a89f8d" stroke-width="1.6"/><line x1="640" y1="980" x2="666" y2="994" stroke="#a89f8d" stroke-width="1.6"/><line x1="640" y1="1000" x2="666" y2="1014" stroke="#a89f8d" stroke-width="1.6"/><line x1="640" y1="1020" x2="666" y2="1034" stroke="#a89f8d" stroke-width="1.6"/><line x1="640" y1="1040" x2="666" y2="1054" stroke="#a89f8d" stroke-width="1.6"/><line x1="640" y1="1060" x2="666" y2="1074" stroke="#a89f8d" stroke-width="1.6"/><line x1="640" y1="1080" x2="666" y2="1094" stroke="#a89f8d" stroke-width="1.6"/><line x1="640" y1="1100" x2="666" y2="1114" stroke="#a89f8d" stroke-width="1.6"/><line x1="640" y1="1120" x2="666" y2="1134" stroke="#a89f8d" stroke-width="1.6"/><rect x="410" y="590" width="20" height="14" fill="#050505" stroke="#888" stroke-width="1"/><rect x="590" y="590" width="20" height="14" fill="#050505" stroke="#888" stroke-width="1"/><rect x="430" y="596" width="160" height="10" fill="#0b0b0c" /><path d="M300 600 h560 v560 h-560 z" fill="url(#sheen)"/><rect x="0" y="1180" width="1300" height="70" fill="#000" opacity=".35"/></svg>
